<svg width="1024" height="1024" viewBox="0 0 1024 1024" xmlns="http://www.w3.org/2000/svg">
  <defs>
    <linearGradient id="bg" x1="0" y1="0" x2="1" y2="1">
      <stop offset="0" stop-color="#121826"/>
      <stop offset="1" stop-color="#0B0E14"/>
    </linearGradient>
    <linearGradient id="ac" x1="0" y1="0" x2="1" y2="1">
      <stop offset="0" stop-color="#5B9BFF"/>
      <stop offset="1" stop-color="#3B82F6"/>
    </linearGradient>
  </defs>
  <rect width="1024" height="1024" fill="url(#bg)"/>
  <!-- 廣播弧線 -->
  <g fill="none" stroke="url(#ac)" stroke-width="34" stroke-linecap="round" opacity="0.9">
    <path d="M372 300 A 200 200 0 0 0 372 612"/>
    <path d="M652 300 A 200 200 0 0 1 652 612"/>
  </g>
  <g fill="none" stroke="#2FE0A8" stroke-width="30" stroke-linecap="round" opacity="0.55">
    <path d="M300 250 A 290 290 0 0 0 300 662"/>
    <path d="M724 250 A 290 290 0 0 1 724 662"/>
  </g>
  <!-- 塔台主體 -->
  <circle cx="512" cy="392" r="58" fill="#FFFFFF"/>
  <path d="M462 440 L562 440 L600 740 L424 740 Z" fill="#FFFFFF"/>
  <rect x="396" y="740" width="232" height="54" rx="20" fill="#3B82F6"/>
</svg>
